<svg width="26" height="26" viewBox="0 0 26 26" fill="none" xmlns="http://www.w3.org/2000/svg">
<path d="M8.125 2.16666C8.69964 2.16666 9.25074 2.39493 9.65706 2.80126C10.0634 3.20759 10.2917 3.75869 10.2917 4.33332C10.2917 4.90796 10.0634 5.45906 9.65706 5.86539C9.25074 6.27172 8.69964 6.49999 8.125 6.49999C7.55036 6.49999 6.99926 6.27172 6.59294 5.86539C6.18661 5.45906 5.95833 4.90796 5.95833 4.33332C5.95833 3.75869 6.18661 3.20759 6.59294 2.80126C6.99926 2.39493 7.55036 2.16666 8.125 2.16666ZM6.5 23.8333V17.3333H3.25L6.06667 9.09999C6.39167 8.23332 7.15 7.58332 8.125 7.58332C9.1 7.58332 9.96667 8.23332 10.1833 9.09999L13 17.3333H9.75V23.8333H6.5ZM15.7083 13C15.7083 12.4254 15.9366 11.8743 16.3429 11.4679C16.7493 11.0616 17.3004 10.8333 17.875 10.8333C18.4496 10.8333 19.0007 11.0616 19.4071 11.4679C19.8134 11.8743 20.0417 12.4254 20.0417 13C20.0417 13.5746 19.8134 14.1257 19.4071 14.5321C19.0007 14.9384 18.4496 15.1667 17.875 15.1667C17.3004 15.1667 16.7493 14.9384 16.3429 14.5321C15.9366 14.1257 15.7083 13.5746 15.7083 13ZM14.625 16.25H21.125V20.5833H19.5V23.8333H16.25V20.5833H14.625V16.25Z" fill="#241856"/>
</svg>
